<svg width="24" height="24" viewBox="0 0 24 24" fill="white" xmlns="http://www.w3.org/2000/svg">
    <g clip-path="url(#clip0_2013_29)">
        <path d="M20.5312 3C20.7602 3.10631 20.8937 3.23978 21 3.46875C21.0472 3.81929 21.023 4.02461 20.8125 4.3125C20.7226 4.41452 20.6273 4.5103 20.5308 4.606C20.5026 4.63431 20.4744 4.66262 20.4454 4.6918C20.3509 4.78664 20.2561 4.88115 20.1612 4.97566C20.0927 5.04426 20.0243 5.11288 19.9558 5.18152C19.7676 5.37011 19.5791 5.55841 19.3906 5.74666C19.1873 5.94971 18.9843 6.15303 18.7813 6.35632C18.4065 6.73148 18.0315 7.10643 17.6565 7.48126C17.31 7.82748 16.9636 8.17379 16.6173 8.52018C16.5944 8.54315 16.5714 8.56613 16.5478 8.58979C16.4545 8.68304 16.3613 8.77629 16.2681 8.86954C15.3937 9.74427 14.5189 10.6187 13.6441 11.4931C12.8666 12.2702 12.0893 13.0475 11.3122 13.825C10.4393 14.6984 9.56629 15.5716 8.69302 16.4446C8.59997 16.5376 8.50692 16.6306 8.41387 16.7237C8.39096 16.7466 8.36805 16.7695 8.34444 16.7931C7.99817 17.1392 7.65202 17.4855 7.30592 17.8318C6.91254 18.2255 6.51899 18.619 6.12523 19.0122C5.9242 19.213 5.72326 19.4139 5.52251 19.6149C5.33894 19.7988 5.15515 19.9824 4.97119 20.1659C4.90449 20.2325 4.83787 20.2991 4.77134 20.3659C4.68125 20.4563 4.59088 20.5463 4.50043 20.6364C4.47436 20.6626 4.44828 20.6889 4.42141 20.716C4.2017 20.9336 4.06466 21.0137 3.75584 21.0176C3.51173 21.0128 3.37002 20.9859 3.18748 20.8125C2.98057 20.5947 2.97807 20.3959 2.97508 20.1094C3.04126 19.7356 3.38735 19.4763 3.64506 19.2224C3.6899 19.1779 3.73471 19.1333 3.7795 19.0887C3.8968 18.972 4.01436 18.8556 4.13199 18.7393C4.32081 18.5525 4.50931 18.3654 4.69766 18.1781C4.76343 18.1128 4.82936 18.0477 4.89529 17.9826C4.95491 17.9234 4.95491 17.9234 5.01574 17.8631C5.05087 17.8283 5.08601 17.7936 5.12221 17.7578C5.20629 17.6768 5.20629 17.6768 5.24998 17.5781C5.20213 17.5615 5.20213 17.5615 5.1533 17.5444C4.98561 17.4713 4.83843 17.3756 4.68748 17.2734C4.65661 17.2526 4.62574 17.2319 4.59393 17.2104C3.29322 16.3254 2.08264 15.2091 1.13657 13.9519C1.07891 13.8761 1.02 13.8014 0.960556 13.7269C-0.0366299 12.4706 -0.0366299 12.4706 -0.0229034 11.8716C0.0189918 11.5918 0.169056 11.384 0.32811 11.1563C0.348715 11.126 0.369319 11.0957 0.390549 11.0644C0.811858 10.4451 1.25963 9.85046 1.7697 9.30139C1.85729 9.20664 1.94124 9.11032 2.0244 9.01172C2.40655 8.57225 2.8314 8.15115 3.28123 7.78125C3.30563 7.76065 3.33003 7.74004 3.35516 7.71881C5.57184 5.8468 8.42436 4.51342 11.3652 4.48883C11.4108 4.48837 11.4564 4.48792 11.5034 4.48744C13.4196 4.47213 15.1726 4.72388 16.9606 5.44309C16.993 5.4561 17.0254 5.46911 17.0589 5.48252C17.1382 5.51435 17.2175 5.54624 17.2969 5.57813C17.3276 5.54721 17.3583 5.5163 17.3899 5.48444C17.6793 5.19313 17.969 4.90205 18.2589 4.61122C18.4079 4.46169 18.5569 4.31208 18.7056 4.16226C18.8492 4.01769 18.993 3.87335 19.1369 3.72916C19.1918 3.67411 19.2466 3.61898 19.3013 3.56376C19.378 3.48644 19.4549 3.40941 19.5319 3.33245C19.5544 3.30956 19.577 3.28667 19.6002 3.26308C19.8872 2.97789 20.1361 2.95763 20.5312 3ZM5.24998 8.25C5.22337 8.26951 5.19677 8.28901 5.16935 8.3091C4.98988 8.44172 4.8145 8.57892 4.64061 8.71875C4.59305 8.75664 4.5455 8.79453 4.49651 8.83356C4.11163 9.14813 3.75929 9.49646 3.40721 9.84668C3.38321 9.87043 3.35921 9.89419 3.33449 9.91866C3.01352 10.2371 2.71661 10.5654 2.43748 10.9219C2.4086 10.9586 2.37971 10.9953 2.34995 11.0332C2.27107 11.1343 2.193 11.2359 2.11522 11.3379C2.07625 11.3885 2.07625 11.3885 2.03648 11.4401C1.96599 11.5322 1.8968 11.6252 1.82811 11.7188C1.79705 11.7604 1.76599 11.8021 1.73399 11.8451C1.67506 11.9524 1.67506 11.9524 1.71513 12.0699C1.94934 12.4865 2.27213 12.8538 2.57811 13.2188C2.59814 13.2431 2.61817 13.2674 2.63881 13.2925C3.14735 13.9101 3.70018 14.5043 4.33134 14.9984C4.46703 15.1047 4.59743 15.2162 4.7285 15.3281C4.98841 15.5446 5.25723 15.7416 5.53954 15.9279C5.60056 15.9682 5.66134 16.0089 5.72196 16.0498C5.82289 16.1177 5.9245 16.1845 6.02635 16.251C6.05818 16.2725 6.09001 16.294 6.1228 16.3162C6.22295 16.3828 6.22295 16.3828 6.37498 16.4531C6.53019 16.4005 6.62893 16.3044 6.74298 16.1895C6.77769 16.1548 6.8124 16.1201 6.84816 16.0843C6.88513 16.0469 6.9221 16.0094 6.96019 15.9708C6.99842 15.9325 7.03665 15.8941 7.07604 15.8546C7.19805 15.732 7.31972 15.6092 7.44139 15.4863C7.52407 15.4032 7.60677 15.3201 7.6895 15.2369C7.8922 15.0332 8.09463 14.8292 8.29686 14.625C8.27751 14.5897 8.25817 14.5544 8.23823 14.518C8.21287 14.4717 8.18751 14.4253 8.16138 14.3776C8.13624 14.3316 8.11109 14.2857 8.08518 14.2384C7.52754 13.2044 7.33951 11.9647 7.64496 10.8167C8.00842 9.60689 8.77876 8.62393 9.89061 8.01563C10.9128 7.49796 12.1638 7.34038 13.2737 7.67176C13.7511 7.83164 14.1847 8.05226 14.625 8.29688C15.1045 7.81735 15.584 7.33782 16.0781 6.84375C15.5862 6.35189 14.3984 6.25709 13.7344 6.14063C13.7014 6.13472 13.6684 6.12882 13.6344 6.12273C10.7206 5.61761 7.60764 6.51897 5.24998 8.25ZM9.98436 9.79688C9.41367 10.3491 9.04969 11.0199 9.03317 11.8217C9.02873 12.4159 9.08301 12.9449 9.42186 13.4531C9.6693 13.2464 9.89981 13.0285 10.1272 12.8C10.1633 12.7639 10.1995 12.7277 10.2368 12.6904C10.3553 12.5719 10.4737 12.4531 10.5921 12.3344C10.6746 12.2517 10.7572 12.1691 10.8398 12.0865C11.0563 11.8697 11.2727 11.6529 11.4891 11.4359C11.7103 11.2143 11.9315 10.9929 12.1528 10.7714C12.5864 10.3373 13.0198 9.90307 13.4531 9.46875C13.1123 9.10789 12.525 9.02868 12.0471 9.00222C11.2622 8.98369 10.564 9.2814 9.98436 9.79688Z" fill="white"/>
        <path d="M19.9761 7.2243C20.1009 7.28399 20.1968 7.36421 20.3027 7.45312C20.3708 7.51022 20.3708 7.51022 20.4402 7.56848C20.6084 7.71362 20.774 7.86117 20.9381 8.01086C21.0325 8.09638 21.1285 8.17926 21.2256 8.26172C21.6326 8.6166 22.0119 9.00891 22.3594 9.42187C22.4152 9.4855 22.4152 9.4855 22.4722 9.55041C24.0324 11.3389 24.0324 11.3389 24.0212 12.1251C23.9828 12.4074 23.8319 12.6147 23.6719 12.8437C23.6513 12.874 23.6307 12.9043 23.6094 12.9356C23.1881 13.5549 22.7404 14.1495 22.2303 14.6986C22.1427 14.7934 22.0587 14.8897 21.9756 14.9883C21.5934 15.4278 21.1686 15.8489 20.7188 16.2187C20.6822 16.2497 20.6822 16.2497 20.6448 16.2812C18.9341 17.7259 16.9377 18.7578 14.751 19.251C14.7122 19.2599 14.6735 19.2688 14.6335 19.278C13.8168 19.4533 12.9956 19.5237 12.1616 19.5183C12.0234 19.5176 11.8853 19.5183 11.7471 19.5192C10.9108 19.5202 10.0848 19.4328 9.26953 19.2422C9.22729 19.2328 9.18506 19.2235 9.14154 19.2138C8.84185 19.1463 8.54577 19.0673 8.25 18.9844C8.28337 18.7022 8.55873 18.4921 8.74759 18.2969C8.79845 18.2437 8.84855 18.1898 8.89783 18.1352C9.30535 17.6835 9.30535 17.6835 9.57881 17.6563C9.73578 17.6803 9.87974 17.7185 10.0312 17.7656C10.1105 17.7799 10.1901 17.7928 10.2698 17.8039C10.307 17.8097 10.3441 17.8155 10.3824 17.8215C13.3316 18.2675 16.352 17.4638 18.75 15.7031C18.7766 15.6836 18.8032 15.6641 18.8306 15.644C19.0101 15.5114 19.1855 15.3743 19.3594 15.2344C19.4075 15.1959 19.4556 15.1575 19.5051 15.1179C19.8805 14.8104 20.2255 14.4718 20.5693 14.1299C20.5922 14.1073 20.6151 14.0846 20.6387 14.0613C20.9526 13.75 21.2426 13.4261 21.5156 13.0781C21.559 13.023 21.559 13.023 21.6033 12.9667C21.6821 12.8657 21.7601 12.764 21.8379 12.6621C21.8639 12.6284 21.8899 12.5947 21.9166 12.5599C21.9871 12.4678 22.0563 12.3748 22.125 12.2812C22.1561 12.2396 22.1871 12.1979 22.2191 12.1549C22.2769 12.0489 22.2769 12.0489 22.2435 11.937C22.1465 11.7684 22.0351 11.6153 21.917 11.4609C21.892 11.428 21.867 11.3951 21.8413 11.3611C21.6027 11.0491 21.3521 10.7489 21.0938 10.4531C21.0603 10.4145 21.0269 10.3758 20.9925 10.3359C20.522 9.80123 20.0183 9.29374 19.4531 8.85937C19.3974 8.81617 19.3417 8.77296 19.2859 8.72973C19.139 8.61607 18.9915 8.50317 18.8438 8.39062C18.8785 8.11865 19.1198 7.94961 19.3044 7.76583C19.374 7.69635 19.4424 7.62592 19.5109 7.55539C19.5763 7.48981 19.5763 7.48981 19.643 7.42291C19.683 7.38262 19.7229 7.34233 19.7641 7.30081C19.875 7.21875 19.875 7.21875 19.9761 7.2243Z" fill="white"/>
        <path d="M16.2656 10.8281C16.312 10.8436 16.3584 10.8591 16.4062 10.875C16.7016 12.0658 16.5024 13.3056 15.8947 14.3586C15.2225 15.407 14.2153 16.1542 12.9992 16.4471C12.3233 16.5826 11.5438 16.5721 10.875 16.4062C10.875 16.1698 10.9676 16.0915 11.1222 15.9302C11.1483 15.9028 11.1744 15.8754 11.2013 15.8472C11.257 15.7893 11.3131 15.7316 11.3694 15.6742C11.4534 15.5876 11.5349 15.4991 11.6166 15.4103C11.9762 15.0344 12.2732 14.8714 12.7896 14.7993C13.4047 14.7115 13.9555 14.2705 14.332 13.7988C14.5665 13.4687 14.7866 13.1 14.828 12.6907C14.8976 12.1066 15.1977 11.8283 15.6182 11.4404C15.6809 11.3805 15.7435 11.3205 15.8059 11.2603C15.9577 11.1147 16.1111 10.9709 16.2656 10.8281Z" fill="white"/>
    </g>
    <defs>
        <clipPath id="clip0_2013_29">
            <rect width="24" height="24" fill="white"/>
        </clipPath>
    </defs>
</svg>
