<svg width="18" height="18" viewBox="0 0 18 18" fill="none" xmlns="http://www.w3.org/2000/svg">
<path d="M15 6H10.791L11.6332 3.47475C11.7847 3.01875 11.7083 2.51325 11.427 2.12325C11.1458 1.73325 10.6898 1.5 10.209 1.5H9C8.77725 1.5 8.5665 1.599 8.42325 1.77L4.89825 6H3C2.17275 6 1.5 6.67275 1.5 7.5V14.25C1.5 15.0773 2.17275 15.75 3 15.75H5.25H12.9802C13.602 15.75 14.166 15.3592 14.385 14.7765L16.4528 9.26325C16.4843 9.17925 16.5 9.09 16.5 9V7.5C16.5 6.67275 15.8273 6 15 6ZM3 7.5H4.5V14.25H3V7.5ZM15 8.86425L12.9802 14.25H6V7.0215L9.351 3H10.2105L9.039 6.51225C8.96175 6.741 9.00075 6.99225 9.14175 7.188C9.28275 7.3845 9.50925 7.5 9.75 7.5H15V8.86425Z" fill="#9397AD"/>
</svg>
