<svg width="24" height="24" viewBox="0 0 24 24" fill="none" xmlns="http://www.w3.org/2000/svg">
    <g clip-path="url(#clip0_2013_33)">
        <path d="M11.3751 4.49047C11.4451 4.49007 11.4451 4.49007 11.5166 4.48966C11.6152 4.48922 11.7138 4.48892 11.8124 4.48873C11.9594 4.48828 12.1064 4.48683 12.2533 4.48535C13.0968 4.48091 13.9277 4.55937 14.751 4.74902C14.8173 4.764 14.8173 4.764 14.8849 4.77929C17.7905 5.45245 20.5022 7.16526 22.4062 9.46874C22.4272 9.49378 22.4482 9.51881 22.4699 9.5446C24.0314 11.4097 24.0314 11.4097 24.0212 12.1251C23.9828 12.4074 23.8319 12.6147 23.6719 12.8437C23.6513 12.874 23.6307 12.9043 23.6094 12.9355C23.1881 13.5549 22.7404 14.1495 22.2303 14.6986C22.1427 14.7934 22.0587 14.8897 21.9756 14.9883C21.5934 15.4277 21.1686 15.8488 20.7188 16.2187C20.6822 16.2497 20.6822 16.2497 20.6448 16.2812C18.9341 17.7259 16.9377 18.7578 14.751 19.251C14.7122 19.2599 14.6735 19.2688 14.6335 19.278C13.7682 19.4637 12.9006 19.5261 12.0176 19.5205C11.9443 19.5203 11.9443 19.5203 11.8696 19.52C8.06253 19.5022 4.77253 17.7781 2.13062 15.1204C1.94348 14.9303 1.76376 14.7369 1.59375 14.5312C1.57276 14.5062 1.55177 14.4812 1.53014 14.4554C-0.0314232 12.5903 -0.0314232 12.5903 -0.0212402 11.8749C0.0171535 11.5926 0.168143 11.3853 0.328125 11.1562C0.34873 11.1259 0.369335 11.0957 0.390564 11.0644C0.811873 10.4451 1.25965 9.85045 1.76971 9.30139C1.85731 9.20663 1.94126 9.11031 2.02441 9.01171C2.40656 8.57224 2.83142 8.15114 3.28125 7.78124C3.30565 7.76064 3.33004 7.74003 3.35518 7.71881C5.57127 5.84728 8.43308 4.50397 11.3751 4.49047ZM5.25 8.24999C5.22339 8.2695 5.19678 8.289 5.16936 8.30909C4.98989 8.44171 4.81451 8.57891 4.64062 8.71874C4.59307 8.75663 4.54552 8.79452 4.49652 8.83355C4.11165 9.14812 3.7593 9.49645 3.40723 9.84667C3.38323 9.87043 3.35923 9.89418 3.3345 9.91865C3.01354 10.2371 2.71662 10.5654 2.4375 10.9219C2.40861 10.9586 2.37973 10.9953 2.34996 11.0332C2.27109 11.1343 2.19302 11.2359 2.11523 11.3379C2.07626 11.3885 2.07626 11.3885 2.0365 11.4401C1.96601 11.5322 1.89682 11.6252 1.82812 11.7187C1.79707 11.7604 1.76601 11.8021 1.73401 11.8451C1.67511 11.9524 1.67511 11.9524 1.71497 12.0698C1.93823 12.4663 2.2425 12.8215 2.53125 13.1719C2.56889 13.2183 2.60654 13.2647 2.64532 13.3125C2.94141 13.6714 3.26088 14.0051 3.58887 14.335C3.62927 14.3758 3.66968 14.4166 3.71131 14.4587C3.99096 14.737 4.28522 14.9888 4.59375 15.2344C4.66606 15.2939 4.73833 15.3534 4.81055 15.4131C6.4043 16.6737 8.25695 17.5291 10.2656 17.8594C10.3238 17.8693 10.3819 17.8793 10.4418 17.8896C13.3533 18.3343 16.3916 17.4816 18.75 15.75C18.7766 15.7305 18.8032 15.711 18.8306 15.6909C19.0101 15.5583 19.1855 15.4211 19.3594 15.2812C19.4069 15.2434 19.4545 15.2055 19.5035 15.1664C19.8884 14.8519 20.2407 14.5035 20.5928 14.1533C20.6168 14.1296 20.6408 14.1058 20.6655 14.0813C20.9865 13.7629 21.2834 13.4346 21.5625 13.0781C21.5914 13.0414 21.6203 13.0047 21.65 12.9668C21.7289 12.8657 21.807 12.7641 21.8848 12.6621C21.9107 12.6284 21.9367 12.5947 21.9635 12.5599C22.034 12.4678 22.1032 12.3748 22.1719 12.2812C22.2029 12.2396 22.234 12.1979 22.266 12.1549C22.3249 12.0476 22.3249 12.0476 22.285 11.9302C22.0618 11.5337 21.7575 11.1785 21.4688 10.8281C21.4123 10.7585 21.4123 10.7585 21.3547 10.6875C21.0586 10.3285 20.7391 9.99494 20.4111 9.66503C20.3707 9.6242 20.3303 9.58336 20.2887 9.54129C20.009 9.26296 19.7152 9.01074 19.4062 8.76562C19.3498 8.71982 19.2934 8.67398 19.2371 8.62811C17.6311 7.34023 15.7642 6.49048 13.7344 6.14062C13.7016 6.13478 13.6688 6.12894 13.635 6.12293C10.7211 5.61742 7.60781 6.51884 5.25 8.24999Z" fill="white"/>
        <path d="M14.7656 8.39063C15.6757 9.13268 16.3619 10.1569 16.5 11.3438C16.5941 12.6742 16.3646 13.8394 15.5083 14.8896C14.7385 15.7719 13.6952 16.4265 12.5054 16.5107C11.1641 16.5703 10.0218 16.3035 8.99121 15.4043C8.12205 14.5894 7.53564 13.5471 7.48206 12.3417C7.4487 11.0057 7.7711 9.8707 8.703 8.87677C10.3205 7.23497 12.9153 6.97583 14.7656 8.39063ZM9.85547 9.89942C9.18321 10.622 9.00594 11.4325 9.03827 12.3914C9.05644 12.6537 9.12975 12.8839 9.23438 13.125C9.25136 13.166 9.26833 13.2071 9.28583 13.2493C9.61562 13.9749 10.2413 14.5237 10.9717 14.8242C11.7697 15.0921 12.6147 15.0377 13.3707 14.669C14.099 14.2803 14.6373 13.6136 14.8832 12.8313C15.0551 12.1979 15.0271 11.4777 14.7656 10.875C14.7402 10.8135 14.7402 10.8135 14.7142 10.7507C14.3844 10.0251 13.7587 9.47632 13.0283 9.17578C11.8836 8.79151 10.7358 9.09817 9.85547 9.89942Z" fill="white"/>
    </g>
    <defs>
        <clipPath id="clip0_2013_33">
            <rect width="24" height="24" fill="white"/>
        </clipPath>
    </defs>
</svg>
